<?xml version="1.0" encoding="UTF-8" standalone="no"?>
<!DOCTYPE svg PUBLIC "-//W3C//DTD SVG 1.1//EN"
 "http://www.w3.org/Graphics/SVG/1.1/DTD/svg11.dtd">
<!-- Generated by graphviz version 2.44.1 (0)
 -->
<!-- Pages: 1 -->
<svg width="1714pt" height="548pt"
 viewBox="0.00 0.00 1714.29 548.00" xmlns="http://www.w3.org/2000/svg" xmlns:xlink="http://www.w3.org/1999/xlink">
<g id="graph0" class="graph" transform="scale(1 1) rotate(0) translate(4 544)">
<polygon fill="white" stroke="transparent" points="-4,4 -4,-544 1710.29,-544 1710.29,4 -4,4"/>
<!-- [root] azurerm_availability_set.avset (expand) -->
<g id="node1" class="node">
<title>[root] azurerm_availability_set.avset (expand)</title>
<polygon fill="none" stroke="black" points="663.29,-180 430.29,-180 430.29,-144 663.29,-144 663.29,-180"/>
<text text-anchor="middle" x="546.79" y="-158.3" font-family="Times,serif" font-size="14.00">azurerm_availability_set.avset</text>
</g>
<!-- [root] azurerm_resource_group.main (expand) -->
<g id="node10" class="node">
<title>[root] azurerm_resource_group.main (expand)</title>
<polygon fill="none" stroke="black" points="893.79,-108 659.79,-108 659.79,-72 893.79,-72 893.79,-108"/>
<text text-anchor="middle" x="776.79" y="-86.3" font-family="Times,serif" font-size="14.00">azurerm_resource_group.main</text>
</g>
<!-- [root] azurerm_availability_set.avset (expand)&#45;&gt;[root] azurerm_resource_group.main (expand) -->
<g id="edge1" class="edge">
<title>[root] azurerm_availability_set.avset (expand)&#45;&gt;[root] azurerm_resource_group.main (expand)</title>
<path fill="none" stroke="black" d="M602.76,-143.97C635.32,-134.06 676.53,-121.51 710.68,-111.12"/>
<polygon fill="black" stroke="black" points="712.03,-114.37 720.57,-108.11 709.99,-107.67 712.03,-114.37"/>
</g>
<!-- [root] azurerm_lb.example (expand) -->
<g id="node2" class="node">
<title>[root] azurerm_lb.example (expand)</title>
<polygon fill="none" stroke="black" points="857.29,-252 696.29,-252 696.29,-216 857.29,-216 857.29,-252"/>
<text text-anchor="middle" x="776.79" y="-230.3" font-family="Times,serif" font-size="14.00">azurerm_lb.example</text>
</g>
<!-- [root] azurerm_public_ip.pip (expand) -->
<g id="node9" class="node">
<title>[root] azurerm_public_ip.pip (expand)</title>
<polygon fill="none" stroke="black" points="863.79,-180 689.79,-180 689.79,-144 863.79,-144 863.79,-180"/>
<text text-anchor="middle" x="776.79" y="-158.3" font-family="Times,serif" font-size="14.00">azurerm_public_ip.pip</text>
</g>
<!-- [root] azurerm_lb.example (expand)&#45;&gt;[root] azurerm_public_ip.pip (expand) -->
<g id="edge2" class="edge">
<title>[root] azurerm_lb.example (expand)&#45;&gt;[root] azurerm_public_ip.pip (expand)</title>
<path fill="none" stroke="black" d="M776.79,-215.7C776.79,-207.98 776.79,-198.71 776.79,-190.11"/>
<polygon fill="black" stroke="black" points="780.29,-190.1 776.79,-180.1 773.29,-190.1 780.29,-190.1"/>
</g>
<!-- [root] azurerm_lb_backend_address_pool.example (expand) -->
<g id="node3" class="node">
<title>[root] azurerm_lb_backend_address_pool.example (expand)</title>
<polygon fill="none" stroke="black" points="995.29,-324 668.29,-324 668.29,-288 995.29,-288 995.29,-324"/>
<text text-anchor="middle" x="831.79" y="-302.3" font-family="Times,serif" font-size="14.00">azurerm_lb_backend_address_pool.example</text>
</g>
<!-- [root] azurerm_lb_backend_address_pool.example (expand)&#45;&gt;[root] azurerm_lb.example (expand) -->
<g id="edge3" class="edge">
<title>[root] azurerm_lb_backend_address_pool.example (expand)&#45;&gt;[root] azurerm_lb.example (expand)</title>
<path fill="none" stroke="black" d="M818.2,-287.7C811.67,-279.39 803.73,-269.28 796.55,-260.14"/>
<polygon fill="black" stroke="black" points="799.16,-257.81 790.23,-252.1 793.66,-262.13 799.16,-257.81"/>
</g>
<!-- [root] azurerm_lb_nat_rule.example (expand) -->
<g id="node4" class="node">
<title>[root] azurerm_lb_nat_rule.example (expand)</title>
<polygon fill="none" stroke="black" points="806.29,-396 579.29,-396 579.29,-360 806.29,-360 806.29,-396"/>
<text text-anchor="middle" x="692.79" y="-374.3" font-family="Times,serif" font-size="14.00">azurerm_lb_nat_rule.example</text>
</g>
<!-- [root] azurerm_lb_nat_rule.example (expand)&#45;&gt;[root] azurerm_lb.example (expand) -->
<g id="edge4" class="edge">
<title>[root] azurerm_lb_nat_rule.example (expand)&#45;&gt;[root] azurerm_lb.example (expand)</title>
<path fill="none" stroke="black" d="M677.66,-359.92C663.03,-341.22 645.06,-310.85 659.79,-288 668.65,-274.26 682.03,-264.05 696.61,-256.47"/>
<polygon fill="black" stroke="black" points="698.29,-259.54 705.81,-252.08 695.28,-253.22 698.29,-259.54"/>
</g>
<!-- [root] azurerm_linux_virtual_machine.main (expand) -->
<g id="node5" class="node">
<title>[root] azurerm_linux_virtual_machine.main (expand)</title>
<polygon fill="none" stroke="black" points="561.29,-396 282.29,-396 282.29,-360 561.29,-360 561.29,-396"/>
<text text-anchor="middle" x="421.79" y="-374.3" font-family="Times,serif" font-size="14.00">azurerm_linux_virtual_machine.main</text>
</g>
<!-- [root] azurerm_linux_virtual_machine.main (expand)&#45;&gt;[root] azurerm_availability_set.avset (expand) -->
<g id="edge5" class="edge">
<title>[root] azurerm_linux_virtual_machine.main (expand)&#45;&gt;[root] azurerm_availability_set.avset (expand)</title>
<path fill="none" stroke="black" d="M431.81,-359.85C453.66,-322.44 505.72,-233.32 531.62,-188.98"/>
<polygon fill="black" stroke="black" points="534.71,-190.63 536.73,-180.23 528.66,-187.1 534.71,-190.63"/>
</g>
<!-- [root] azurerm_network_interface.main (expand) -->
<g id="node6" class="node">
<title>[root] azurerm_network_interface.main (expand)</title>
<polygon fill="none" stroke="black" points="1265.79,-324 1013.79,-324 1013.79,-288 1265.79,-288 1265.79,-324"/>
<text text-anchor="middle" x="1139.79" y="-302.3" font-family="Times,serif" font-size="14.00">azurerm_network_interface.main</text>
</g>
<!-- [root] azurerm_linux_virtual_machine.main (expand)&#45;&gt;[root] azurerm_network_interface.main (expand) -->
<g id="edge6" class="edge">
<title>[root] azurerm_linux_virtual_machine.main (expand)&#45;&gt;[root] azurerm_network_interface.main (expand)</title>
<path fill="none" stroke="black" d="M561.61,-360.82C564.36,-360.54 567.09,-360.27 569.79,-360 759.55,-341.25 810.13,-344.02 1003.48,-324.11"/>
<polygon fill="black" stroke="black" points="1004.11,-327.56 1013.7,-323.05 1003.39,-320.6 1004.11,-327.56"/>
</g>
<!-- [root] azurerm_subnet.internal (expand) -->
<g id="node11" class="node">
<title>[root] azurerm_subnet.internal (expand)</title>
<polygon fill="none" stroke="black" points="1441.29,-252 1248.29,-252 1248.29,-216 1441.29,-216 1441.29,-252"/>
<text text-anchor="middle" x="1344.79" y="-230.3" font-family="Times,serif" font-size="14.00">azurerm_subnet.internal</text>
</g>
<!-- [root] azurerm_network_interface.main (expand)&#45;&gt;[root] azurerm_subnet.internal (expand) -->
<g id="edge7" class="edge">
<title>[root] azurerm_network_interface.main (expand)&#45;&gt;[root] azurerm_subnet.internal (expand)</title>
<path fill="none" stroke="black" d="M1189.68,-287.97C1218.45,-278.14 1254.8,-265.73 1285.08,-255.39"/>
<polygon fill="black" stroke="black" points="1286.35,-258.65 1294.68,-252.11 1284.09,-252.03 1286.35,-258.65"/>
</g>
<!-- [root] local.instance_count (expand) -->
<g id="node16" class="node">
<title>[root] local.instance_count (expand)</title>
<ellipse fill="none" stroke="black" cx="1053.79" cy="-234" rx="176.57" ry="18"/>
<text text-anchor="middle" x="1053.79" y="-230.3" font-family="Times,serif" font-size="14.00">[root] local.instance_count (expand)</text>
</g>
<!-- [root] azurerm_network_interface.main (expand)&#45;&gt;[root] local.instance_count (expand) -->
<g id="edge8" class="edge">
<title>[root] azurerm_network_interface.main (expand)&#45;&gt;[root] local.instance_count (expand)</title>
<path fill="none" stroke="black" d="M1118.54,-287.7C1107.71,-278.88 1094.38,-268.03 1082.63,-258.47"/>
<polygon fill="black" stroke="black" points="1084.77,-255.7 1074.81,-252.1 1080.35,-261.13 1084.77,-255.7"/>
</g>
<!-- [root] azurerm_network_interface_backend_address_pool_association.example (expand) -->
<g id="node7" class="node">
<title>[root] azurerm_network_interface_backend_address_pool_association.example (expand)</title>
<polygon fill="none" stroke="black" points="1353.29,-396 824.29,-396 824.29,-360 1353.29,-360 1353.29,-396"/>
<text text-anchor="middle" x="1088.79" y="-374.3" font-family="Times,serif" font-size="14.00">azurerm_network_interface_backend_address_pool_association.example</text>
</g>
<!-- [root] azurerm_network_interface_backend_address_pool_association.example (expand)&#45;&gt;[root] azurerm_lb_backend_address_pool.example (expand) -->
<g id="edge9" class="edge">
<title>[root] azurerm_network_interface_backend_address_pool_association.example (expand)&#45;&gt;[root] azurerm_lb_backend_address_pool.example (expand)</title>
<path fill="none" stroke="black" d="M1026.25,-359.97C989.56,-349.97 943.03,-337.3 904.69,-326.85"/>
<polygon fill="black" stroke="black" points="905.18,-323.36 894.62,-324.11 903.34,-330.12 905.18,-323.36"/>
</g>
<!-- [root] azurerm_network_interface_backend_address_pool_association.example (expand)&#45;&gt;[root] azurerm_network_interface.main (expand) -->
<g id="edge10" class="edge">
<title>[root] azurerm_network_interface_backend_address_pool_association.example (expand)&#45;&gt;[root] azurerm_network_interface.main (expand)</title>
<path fill="none" stroke="black" d="M1101.4,-359.7C1107.39,-351.47 1114.67,-341.48 1121.27,-332.42"/>
<polygon fill="black" stroke="black" points="1124.27,-334.25 1127.33,-324.1 1118.62,-330.13 1124.27,-334.25"/>
</g>
<!-- [root] azurerm_network_security_group.webserver (expand) -->
<g id="node8" class="node">
<title>[root] azurerm_network_security_group.webserver (expand)</title>
<polygon fill="none" stroke="black" points="1706.29,-396 1371.29,-396 1371.29,-360 1706.29,-360 1706.29,-396"/>
<text text-anchor="middle" x="1538.79" y="-374.3" font-family="Times,serif" font-size="14.00">azurerm_network_security_group.webserver</text>
</g>
<!-- [root] azurerm_network_security_group.webserver (expand)&#45;&gt;[root] azurerm_subnet.internal (expand) -->
<g id="edge11" class="edge">
<title>[root] azurerm_network_security_group.webserver (expand)&#45;&gt;[root] azurerm_subnet.internal (expand)</title>
<path fill="none" stroke="black" d="M1515.39,-359.87C1480.73,-334.5 1415.64,-286.85 1376.65,-258.32"/>
<polygon fill="black" stroke="black" points="1378.42,-255.27 1368.28,-252.19 1374.28,-260.92 1378.42,-255.27"/>
</g>
<!-- [root] azurerm_public_ip.pip (expand)&#45;&gt;[root] azurerm_resource_group.main (expand) -->
<g id="edge12" class="edge">
<title>[root] azurerm_public_ip.pip (expand)&#45;&gt;[root] azurerm_resource_group.main (expand)</title>
<path fill="none" stroke="black" d="M776.79,-143.7C776.79,-135.98 776.79,-126.71 776.79,-118.11"/>
<polygon fill="black" stroke="black" points="780.29,-118.1 776.79,-108.1 773.29,-118.1 780.29,-118.1"/>
</g>
<!-- [root] provider[&quot;registry.terraform.io/hashicorp/azurerm&quot;] -->
<g id="node13" class="node">
<title>[root] provider[&quot;registry.terraform.io/hashicorp/azurerm&quot;]</title>
<polygon fill="none" stroke="black" points="354.79,-36 0.21,-18 354.79,0 709.38,-18 354.79,-36"/>
<text text-anchor="middle" x="354.79" y="-14.3" font-family="Times,serif" font-size="14.00">provider[&quot;registry.terraform.io/hashicorp/azurerm&quot;]</text>
</g>
<!-- [root] azurerm_resource_group.main (expand)&#45;&gt;[root] provider[&quot;registry.terraform.io/hashicorp/azurerm&quot;] -->
<g id="edge13" class="edge">
<title>[root] azurerm_resource_group.main (expand)&#45;&gt;[root] provider[&quot;registry.terraform.io/hashicorp/azurerm&quot;]</title>
<path fill="none" stroke="black" d="M674.1,-71.97C603.56,-60.26 510.85,-44.89 443.51,-33.72"/>
<polygon fill="black" stroke="black" points="443.79,-30.21 433.35,-32.03 442.64,-37.12 443.79,-30.21"/>
</g>
<!-- [root] var.location -->
<g id="node14" class="node">
<title>[root] var.location</title>
<polygon fill="none" stroke="black" points="820.29,-36 727.29,-36 727.29,0 826.29,0 826.29,-30 820.29,-36"/>
<polyline fill="none" stroke="black" points="820.29,-36 820.29,-30 "/>
<polyline fill="none" stroke="black" points="826.29,-30 820.29,-30 "/>
<text text-anchor="middle" x="776.79" y="-14.3" font-family="Times,serif" font-size="14.00">var.location</text>
</g>
<!-- [root] azurerm_resource_group.main (expand)&#45;&gt;[root] var.location -->
<g id="edge14" class="edge">
<title>[root] azurerm_resource_group.main (expand)&#45;&gt;[root] var.location</title>
<path fill="none" stroke="black" d="M776.79,-71.7C776.79,-63.98 776.79,-54.71 776.79,-46.11"/>
<polygon fill="black" stroke="black" points="780.29,-46.1 776.79,-36.1 773.29,-46.1 780.29,-46.1"/>
</g>
<!-- [root] var.prefix -->
<g id="node15" class="node">
<title>[root] var.prefix</title>
<polygon fill="none" stroke="black" points="922.79,-36 844.79,-36 844.79,0 928.79,0 928.79,-30 922.79,-36"/>
<polyline fill="none" stroke="black" points="922.79,-36 922.79,-30 "/>
<polyline fill="none" stroke="black" points="928.79,-30 922.79,-30 "/>
<text text-anchor="middle" x="886.79" y="-14.3" font-family="Times,serif" font-size="14.00">var.prefix</text>
</g>
<!-- [root] azurerm_resource_group.main (expand)&#45;&gt;[root] var.prefix -->
<g id="edge15" class="edge">
<title>[root] azurerm_resource_group.main (expand)&#45;&gt;[root] var.prefix</title>
<path fill="none" stroke="black" d="M803.7,-71.88C817.95,-62.81 835.64,-51.55 851.03,-41.76"/>
<polygon fill="black" stroke="black" points="853.22,-44.51 859.78,-36.19 849.47,-38.61 853.22,-44.51"/>
</g>
<!-- [root] azurerm_virtual_network.main (expand) -->
<g id="node12" class="node">
<title>[root] azurerm_virtual_network.main (expand)</title>
<polygon fill="none" stroke="black" points="1288.79,-180 1052.79,-180 1052.79,-144 1288.79,-144 1288.79,-180"/>
<text text-anchor="middle" x="1170.79" y="-158.3" font-family="Times,serif" font-size="14.00">azurerm_virtual_network.main</text>
</g>
<!-- [root] azurerm_subnet.internal (expand)&#45;&gt;[root] azurerm_virtual_network.main (expand) -->
<g id="edge16" class="edge">
<title>[root] azurerm_subnet.internal (expand)&#45;&gt;[root] azurerm_virtual_network.main (expand)</title>
<path fill="none" stroke="black" d="M1302.23,-215.88C1278.23,-206.22 1248.07,-194.09 1222.69,-183.88"/>
<polygon fill="black" stroke="black" points="1223.81,-180.55 1213.22,-180.07 1221.19,-187.05 1223.81,-180.55"/>
</g>
<!-- [root] azurerm_virtual_network.main (expand)&#45;&gt;[root] azurerm_resource_group.main (expand) -->
<g id="edge17" class="edge">
<title>[root] azurerm_virtual_network.main (expand)&#45;&gt;[root] azurerm_resource_group.main (expand)</title>
<path fill="none" stroke="black" d="M1074.92,-143.97C1016.76,-133.63 942.49,-120.44 882.62,-109.8"/>
<polygon fill="black" stroke="black" points="883.22,-106.35 872.76,-108.05 882,-113.25 883.22,-106.35"/>
</g>
<!-- [root] meta.count&#45;boundary (EachMode fixup) -->
<g id="node17" class="node">
<title>[root] meta.count&#45;boundary (EachMode fixup)</title>
<ellipse fill="none" stroke="black" cx="1167.79" cy="-450" rx="222.86" ry="18"/>
<text text-anchor="middle" x="1167.79" y="-446.3" font-family="Times,serif" font-size="14.00">[root] meta.count&#45;boundary (EachMode fixup)</text>
</g>
<!-- [root] meta.count&#45;boundary (EachMode fixup)&#45;&gt;[root] azurerm_lb_nat_rule.example (expand) -->
<g id="edge18" class="edge">
<title>[root] meta.count&#45;boundary (EachMode fixup)&#45;&gt;[root] azurerm_lb_nat_rule.example (expand)</title>
<path fill="none" stroke="black" d="M1065.9,-433.98C992.98,-423.24 894.41,-408.71 816.9,-397.29"/>
<polygon fill="black" stroke="black" points="817,-393.77 806.6,-395.77 815.98,-400.69 817,-393.77"/>
</g>
<!-- [root] meta.count&#45;boundary (EachMode fixup)&#45;&gt;[root] azurerm_linux_virtual_machine.main (expand) -->
<g id="edge19" class="edge">
<title>[root] meta.count&#45;boundary (EachMode fixup)&#45;&gt;[root] azurerm_linux_virtual_machine.main (expand)</title>
<path fill="none" stroke="black" d="M1016.85,-436.71C898.48,-426.82 729.29,-412.11 571.96,-396.21"/>
<polygon fill="black" stroke="black" points="571.92,-392.69 561.61,-395.16 571.21,-399.65 571.92,-392.69"/>
</g>
<!-- [root] meta.count&#45;boundary (EachMode fixup)&#45;&gt;[root] azurerm_network_interface_backend_address_pool_association.example (expand) -->
<g id="edge20" class="edge">
<title>[root] meta.count&#45;boundary (EachMode fixup)&#45;&gt;[root] azurerm_network_interface_backend_address_pool_association.example (expand)</title>
<path fill="none" stroke="black" d="M1148.67,-432.05C1138.75,-423.26 1126.47,-412.38 1115.61,-402.76"/>
<polygon fill="black" stroke="black" points="1117.82,-400.04 1108.02,-396.03 1113.18,-405.28 1117.82,-400.04"/>
</g>
<!-- [root] meta.count&#45;boundary (EachMode fixup)&#45;&gt;[root] azurerm_network_security_group.webserver (expand) -->
<g id="edge21" class="edge">
<title>[root] meta.count&#45;boundary (EachMode fixup)&#45;&gt;[root] azurerm_network_security_group.webserver (expand)</title>
<path fill="none" stroke="black" d="M1251.05,-433.29C1306.59,-422.81 1379.91,-408.98 1438.64,-397.9"/>
<polygon fill="black" stroke="black" points="1439.5,-401.3 1448.68,-396 1438.2,-394.42 1439.5,-401.3"/>
</g>
<!-- [root] provider[&quot;registry.terraform.io/hashicorp/azurerm&quot;] (close) -->
<g id="node18" class="node">
<title>[root] provider[&quot;registry.terraform.io/hashicorp/azurerm&quot;] (close)</title>
<ellipse fill="none" stroke="black" cx="613.79" cy="-450" rx="313.04" ry="18"/>
<text text-anchor="middle" x="613.79" y="-446.3" font-family="Times,serif" font-size="14.00">[root] provider[&quot;registry.terraform.io/hashicorp/azurerm&quot;] (close)</text>
</g>
<!-- [root] provider[&quot;registry.terraform.io/hashicorp/azurerm&quot;] (close)&#45;&gt;[root] azurerm_lb_nat_rule.example (expand) -->
<g id="edge22" class="edge">
<title>[root] provider[&quot;registry.terraform.io/hashicorp/azurerm&quot;] (close)&#45;&gt;[root] azurerm_lb_nat_rule.example (expand)</title>
<path fill="none" stroke="black" d="M633.32,-431.7C643.18,-422.97 655.28,-412.24 665.99,-402.75"/>
<polygon fill="black" stroke="black" points="668.33,-405.36 673.49,-396.1 663.69,-400.12 668.33,-405.36"/>
</g>
<!-- [root] provider[&quot;registry.terraform.io/hashicorp/azurerm&quot;] (close)&#45;&gt;[root] azurerm_linux_virtual_machine.main (expand) -->
<g id="edge23" class="edge">
<title>[root] provider[&quot;registry.terraform.io/hashicorp/azurerm&quot;] (close)&#45;&gt;[root] azurerm_linux_virtual_machine.main (expand)</title>
<path fill="none" stroke="black" d="M567.32,-432.05C540.39,-422.24 506.32,-409.82 477.91,-399.46"/>
<polygon fill="black" stroke="black" points="479.1,-396.17 468.51,-396.03 476.71,-402.75 479.1,-396.17"/>
</g>
<!-- [root] provider[&quot;registry.terraform.io/hashicorp/azurerm&quot;] (close)&#45;&gt;[root] azurerm_network_interface_backend_address_pool_association.example (expand) -->
<g id="edge24" class="edge">
<title>[root] provider[&quot;registry.terraform.io/hashicorp/azurerm&quot;] (close)&#45;&gt;[root] azurerm_network_interface_backend_address_pool_association.example (expand)</title>
<path fill="none" stroke="black" d="M721.88,-433.07C793.67,-422.49 888.17,-408.57 963.28,-397.5"/>
<polygon fill="black" stroke="black" points="963.9,-400.94 973.28,-396.02 962.88,-394.02 963.9,-400.94"/>
</g>
<!-- [root] provider[&quot;registry.terraform.io/hashicorp/azurerm&quot;] (close)&#45;&gt;[root] azurerm_network_security_group.webserver (expand) -->
<g id="edge25" class="edge">
<title>[root] provider[&quot;registry.terraform.io/hashicorp/azurerm&quot;] (close)&#45;&gt;[root] azurerm_network_security_group.webserver (expand)</title>
<path fill="none" stroke="black" d="M814.97,-436.17C963.18,-426.38 1169.94,-412.03 1360.89,-396.15"/>
<polygon fill="black" stroke="black" points="1361.45,-399.61 1371.12,-395.3 1360.86,-392.64 1361.45,-399.61"/>
</g>
<!-- [root] root -->
<g id="node19" class="node">
<title>[root] root</title>
<ellipse fill="none" stroke="black" cx="890.79" cy="-522" rx="58.49" ry="18"/>
<text text-anchor="middle" x="890.79" y="-518.3" font-family="Times,serif" font-size="14.00">[root] root</text>
</g>
<!-- [root] root&#45;&gt;[root] meta.count&#45;boundary (EachMode fixup) -->
<g id="edge26" class="edge">
<title>[root] root&#45;&gt;[root] meta.count&#45;boundary (EachMode fixup)</title>
<path fill="none" stroke="black" d="M934.38,-509.99C976.95,-499.23 1042.56,-482.65 1093.39,-469.8"/>
<polygon fill="black" stroke="black" points="1094.51,-473.13 1103.35,-467.29 1092.79,-466.34 1094.51,-473.13"/>
</g>
<!-- [root] root&#45;&gt;[root] provider[&quot;registry.terraform.io/hashicorp/azurerm&quot;] (close) -->
<g id="edge27" class="edge">
<title>[root] root&#45;&gt;[root] provider[&quot;registry.terraform.io/hashicorp/azurerm&quot;] (close)</title>
<path fill="none" stroke="black" d="M847.21,-509.99C805,-499.32 740.13,-482.93 689.48,-470.13"/>
<polygon fill="black" stroke="black" points="690.11,-466.67 679.55,-467.62 688.39,-473.46 690.11,-466.67"/>
</g>
</g>
</svg>
